<svg xmlns="http://www.w3.org/2000/svg" viewBox="0 0 200 200" version="1">
  <path d="M100 5a95 95 0 0 0-95 95 95 95 0 0 0 95 95 95 95 0 0 0 95-95 95 95 0 0 0-95-95zm0 15a15 15 0 0 1 15 15 15 15 0 0 1-8 14l12 25 28 4a15 15 0 0 1 15-13 15 15 0 0 1 15 15 15 15 0 0 1-15 15 15 15 0 0 1-11-5l-20 20 5 28a15 15 0 0 1 2-1 15 15 0 0 1 15 15 15 15 0 0 1-15 15 15 15 0 0 1-15-15 15 15 0 0 1 2-7l-25-13-25 13a15 15 0 0 1 2 7 15 15 0 0 1-15 15 15 15 0 0 1-15-15 15 15 0 0 1 15-15 15 15 0 0 1 2 1l5-28-20-20a15 15 0 0 1-11 5 15 15 0 0 1-15-15 15 15 0 0 1 15-15 15 15 0 0 1 15 13l28-4 12-25a15 15 0 0 1-8-14 15 15 0 0 1 15-15z"/>
</svg>
