<?xml version="1.0" encoding="UTF-8" standalone="no"?>
<!-- Created with Inkscape (http://www.inkscape.org/) -->

<svg
   xmlns:dc="http://purl.org/dc/elements/1.1/"
   xmlns:cc="http://creativecommons.org/ns#"
   xmlns:rdf="http://www.w3.org/1999/02/22-rdf-syntax-ns#"
   xmlns:svg="http://www.w3.org/2000/svg"
   xmlns="http://www.w3.org/2000/svg"
   xmlns:sodipodi="http://sodipodi.sourceforge.net/DTD/sodipodi-0.dtd"
   xmlns:inkscape="http://www.inkscape.org/namespaces/inkscape"
   width="200mm"
   height="200mm"
   viewBox="0 0 200 200"
   version="1.1"
   id="svg8"
   inkscape:version="0.92.4 (5da689c313, 2019-01-14)"
   sodipodi:docname="logo.svg">
  <defs
     id="defs2" />
  <sodipodi:namedview
     id="base"
     pagecolor="#ffffff"
     bordercolor="#666666"
     borderopacity="1.0"
     inkscape:pageopacity="0.0"
     inkscape:pageshadow="2"
     inkscape:zoom="0.90270283"
     inkscape:cx="377.95276"
     inkscape:cy="333.64138"
     inkscape:document-units="mm"
     inkscape:current-layer="layer1"
     showgrid="false"
     inkscape:snap-bbox="true"
     inkscape:snap-center="true"
     inkscape:snap-grids="false"
     inkscape:window-width="3840"
     inkscape:window-height="2097"
     inkscape:window-x="-8"
     inkscape:window-y="-8"
     inkscape:window-maximized="1">
    <inkscape:grid
       type="xygrid"
       id="grid3713" />
  </sodipodi:namedview>
  <metadata
     id="metadata5">
    <rdf:RDF>
      <cc:Work
         rdf:about="">
        <dc:format>image/svg+xml</dc:format>
        <dc:type
           rdf:resource="http://purl.org/dc/dcmitype/StillImage" />
        <dc:title />
      </cc:Work>
    </rdf:RDF>
  </metadata>
  <g
     inkscape:label="Layer 1"
     inkscape:groupmode="layer"
     id="layer1"
     transform="translate(0,-97)">
    <path
       style="fill:#ffffff;stroke:none;stroke-width:0.38642409;stroke-opacity:1"
       d="M 99.999998,101.99986 A 94.999999,94.999999 0 0 0 5.0001192,197.00025 94.999999,94.999999 0 0 0 99.999998,292.00014 94.999999,94.999999 0 0 0 194.99988,197.00025 94.999999,94.999999 0 0 0 99.999998,101.99986 Z m 0,15.20993 a 14.999999,14.999999 0 0 1 15.000122,15.00011 14.999999,14.999999 0 0 1 -8.36538,13.44363 l 12.40647,25.13851 27.75233,4.03232 a 14.999999,14.999999 0 0 1 14.82545,-12.84573 14.999999,14.999999 0 0 1 15.0001,15.00012 14.999999,14.999999 0 0 1 -15.0001,15.00011 14.999999,14.999999 0 0 1 -10.74044,-4.53098 l -20.06907,19.56263 4.73771,27.6226 a 14.999999,14.999999 0 0 1 2.53576,-0.21653 14.999999,14.999999 0 0 1 14.9996,14.99961 14.999999,14.999999 0 0 1 -14.9996,15.0001 14.999999,14.999999 0 0 1 -15.00012,-15.00012 14.999999,14.999999 0 0 1 1.73167,-6.97529 l -24.814502,-13.0457 -24.813472,13.04519 a 15,15 0 0 1 1.73064,6.97581 15,15 0 0 1 -15.000102,15.0001 15,15 0 0 1 -14.9996,-15.00011 15,15 0 0 1 14.9996,-14.99961 15,15 0 0 1 2.533173,0.231 L 69.190512,207.0105 49.111627,187.43855 a 14.999998,14.999998 0 0 1 -10.7306,4.54029 14.999998,14.999998 0 0 1 -15.000118,-15.00011 14.999998,14.999998 0 0 1 15.000118,-15.00012 14.999998,14.999998 0 0 1 14.829075,12.84521 l 27.74868,-4.0318 12.411128,-25.1473 a 14.999999,14.999999 0 0 1 -8.370015,-13.43484 14.999999,14.999999 0 0 1 15.000103,-15.00009 z"
       id="path848"
       inkscape:connector-curvature="0" />
  </g>
</svg>
